# xmcd
#
# Track frame offsets:
#       150
#       40707
#       51892
#       68207
#       94625
#       137352
#       155775
#
# Disc length: 2463 seconds
#
# Revision: 0
# Processed by: cddbd v1.5.2PL0 Copyright (c) Steve Scherf et al.
# Submitted via: WaveLab 4.01
#
DISCID=56099d07
DTITLE=Al Kooper - Shuggie Otis - Kooper Session
DYEAR=1900
DGENRE=Blues
TTITLE0=Bury My Body
TTITLE1=Double Or Nothing
TTITLE2=One Room Country Shack
TTITLE3=Looking For A Home
TTITLE4=12:15 Slow Goonbash Blues
TTITLE5=Shuggie's Old Time Slide Blues
TTITLE6=Shuggie's Shuffle
EXTD=
EXTT0=
EXTT1=
EXTT2=
EXTT3=
EXTT4=
EXTT5=
EXTT6=
PLAYORDER=
